Patient4_TMGait_0pt6_02_right_46_EMG.mot
version=1
nRows=13
nColumns=33
inDegrees=no
endheader
time	1LAddLong	2LGlutMax	3LGlutMed	4LIliopsoas	5LSemiMemb	6LBicFemLong	7LRecFem	8LVastMed	9LVastLat	10LGasMed	11LTibAnt	12lTibPost	13LPeroneusLong	14LSol	15LExtDigLong	16LFlexDigLong	17RAddLong	18RGlutMax	19RGlutMed	20RIliopsoas	21RSemiMemb	22RBicFemLong	23RRecFem	24RVastMed	25RVastLat	26RGasMed	27RTibAnt	28RTibPost	29RPeroneusLong	30RSol	31RExtDigLong	32RFlexDigLong
56.82	-0.015869	0.014038	-0.015869	-0.011292	0.07309	-0.097656	0.095673	0.008392	0.23117	-0.018616	0.022278	-0.007019	0.063171	-0.12878	0.51056	0.004883	0.13992	-0.097351	-0.14511	-0.21973	0.021973	0.010834	-0.033722	-0.066681	0.031586	-0.007935	-0.17517	-0.001526	0.39673	0.06546	-0.001678	0.001526
56.821	-0.012054	0.009155	-0.095367	0.003967	0.018616	-0.035553	0.12238	0.010529	0.23209	-0.004578	-0.032043	-0.003662	0.023193	-0.11322	0.28244	0.00061	0.052185	-0.083008	-0.14465	-0.21286	0.12955	-0.061493	-0.04776	-0.046997	0.043945	-0.005188	0.068512	-0.010834	0.020447	-0.00061	-0.002136	-0.00946
56.822	-0.009003	0.027771	-0.066376	0.029297	0.050507	-0.00946	0.19119	0.009766	0.029602	0.044098	-0.02655	-0.002594	-0.041351	-0.058899	0.16342	0.037537	0.067749	-0.035095	-0.24063	-0.077667	0.084229	-0.12894	-0.012512	-0.069733	0.052795	-0.008545	0.40604	-0.00473	-0.17227	-0.041046	0.000153	-0.009613
56.823	-0.014954	0.03067	0.061951	0.000153	0.033875	-0.010376	0.1503	0.009308	-0.42908	0.092926	0.021515	-0.014191	-0.016174	-0.041504	-0.052338	0.031738	0.16251	-0.006409	0.13504	0.10941	0.02655	-0.16556	-0.028076	-0.079651	0.051575	-0.005341	0.49072	-0.001221	-0.2121	-0.081024	-0.001221	0.000305
56.824	-0.003662	0.042419	0.046387	0.018921	-0.032959	-0.052795	-0.010681	0.019226	-0.2887	0.083313	0.10605	-0.005035	0.028992	-0.067444	-0.097961	0.03418	0.15793	-0.03952	0.11154	0.18143	-0.000458	-0.23544	-0.048218	-0.064087	0.032196	-0.010071	0.50171	-0.006256	-0.11276	-0.085602	-0.001678	-0.013123
56.825	0.018768	0.005493	-0.04303	0.015411	-0.056458	-0.10056	-0.033722	0.012665	-0.13062	0.080261	0.10544	0.005951	0.020752	-0.11368	-0.12497	0.024414	0.11704	-0.01297	-0.02594	0.18539	-0.10101	-0.25436	-0.010376	-0.10132	0.040131	-0.011902	0.55161	0.005798	-0.084991	-0.06073	-0.000458	-0.010223
56.826	0.024414	0.015259	-0.021515	0.012817	0.005798	-0.088043	0.075989	0.005188	-0.1149	0.1033	0.014648	-0.000763	0.037994	-0.062561	0.096588	0.085754	-0.01358	0.016479	-0.069275	0.15335	-0.083618	-0.25818	0.024567	-0.07431	0.003815	-0.009766	0.34088	-0.004578	-0.12741	-0.02655	-0.001526	-0.012817
56.827	0.018921	0.011444	0.037384	0.011597	0.032959	-0.021057	0.12802	0.006104	-0.064545	0.11276	0.011902	-0.002289	-0.062561	-0.015259	0.2179	-0.029144	-0.12924	-0.065002	-0.14923	0.09964	-0.021515	-0.25024	0.032043	-0.032806	-0.008698	-0.005341	0.15045	-0.005951	-0.014343	-0.050964	-0.001678	-0.007324
56.828	0.012207	-0.018158	-0.02655	0.006256	0.030975	0.006256	0.15488	0.001526	-0.009155	0.076447	0.046234	-0.000458	-0.095062	0.027771	0.21149	0.005188	-0.24139	-0.052032	-0.34546	0.08606	-0.1033	-0.046387	0.021973	-0.052032	0.017242	-0.001373	-0.07782	-0.006409	0.007477	-0.011597	-0.001221	-0.014191
56.829	0.011292	0.017395	0.066528	-0.006256	0.054779	-0.018616	0.13534	-0.02182	0.002899	0.043793	0.025635	-0.000305	-0.10025	0.04715	0.1207	0.018921	-0.27008	-0.02182	-0.34744	0.029297	0.073853	0.25986	-0.006409	0.013733	0.002136	-0.002899	-0.040436	0.00412	-0.088959	-0.002899	-0.001221	-0.013123
56.83	0.009155	0.020294	0.044708	0.018921	0.058289	-0.00473	0.1355	-0.012665	0.020142	0.011139	-0.089874	0.001373	-0.053406	0.047607	0.037842	0.009766	-0.23102	-0.032349	-0.23529	0.012207	0.007629	0.48477	0.068359	-0.016937	-0.004425	0	-0.11032	-0.005188	0.039825	-0.019684	-0.000916	-0.002594
56.831	0.005035	-0.00473	0.16296	0.014343	0.034485	0.021973	0.13397	-0.002899	0.029602	-0.074768	-0.1622	0.000458	0.031891	0.055237	-0.081787	0.012817	-0.20737	-0.026398	-0.30716	0.03418	-0.010223	0.40909	0.042725	0.002289	-0.014648	-0.002289	-0.28122	-0.005188	0.23789	-0.075989	-0.000153	-0.005951
56.832	-0.001984	-0.021057	0.06073	0.013275	0.040283	0.060577	0.1358	0.005341	-0.039368	-0.058289	-0.21927	-0.000153	0.051575	0.01358	0.016479	0.007172	-0.1799	-0.062256	-0.33218	0.051727	0.006561	0.2211	0.034027	-0.025177	-0.019989	-0.005798	-0.25833	-0.009003	0.24323	-0.063324	0.001068	-0.006409
